# xmcd
#
# Track frame offsets:
#	150
#	17226
#	30853
#	44472
#	61310
#	74121
#	86697
#	103101
#	117076
#	131208
#	145889
#
# Disc length: 2211 seconds
#
# Revision: 2
# Processed by: cddbd v1.5.1PL0 Copyright (c) Steve Scherf et al.
# Submitted via: audiograbber 1.83.01
#
DISCID=9e08a10b
DTITLE=Ajda Pekkan - ... Pour Lui
DYEAR=1978
DGENRE=Pop
TTITLE0=Combien Je T'aime
TTITLE1=Je Danse
TTITLE2=Loin De Nos Je T'aime
TTITLE3=Un Amour Qui S'en Va
TTITLE4=Et Je Voyage
TTITLE5=Le Jardin D'Orient
TTITLE6=Si J'etais Magicien
TTITLE7=Laisse-Moi Des Souvenirs
TTITLE8=En Oubliant Qu'on Était Deux
TTITLE9=Mon Coeur Est Comme Ca
TTITLE10=Pour Lui
EXTD=French album of Turkish Superstar and Diva Ajda Pekkan
EXTT0=
EXTT1=
EXTT2=
EXTT3=
EXTT4=
EXTT5=
EXTT6=
EXTT7=
EXTT8=
EXTT9=
EXTT10=
PLAYORDER=
